<svg xmlns="http://www.w3.org/2000/svg" viewBox="0 0 48 48" id="upload">
  <g>
    <path fill="#5ad6ff" d="M34.318,17.035A12,12,0,0,0,11,21c0,.076,0,.152,0,.228A9,9,0,0,0,13,39H32.5A11.513,11.513,0,0,0,44,27.5,10.532,10.532,0,0,0,34.318,17.035Z"></path>
    <path fill="#e6eeff" d="M29,26a1,1,0,0,1-.625-.219L24,22.28l-4.375,3.5a1,1,0,0,1-1.25-1.562l5-4a1,1,0,0,1,1.25,0l5,4A1,1,0,0,1,29,26Z"></path>
    <path fill="#e6eeff" d="M24,32a1,1,0,0,1-1-1V21a1,1,0,0,1,2,0V31A1,1,0,0,1,24,32Z"></path>
    <path fill="#232323" d="M32.5,39H13a9,9,0,0,1-2-17.772c0-.076,0-.152,0-.228a12,12,0,0,1,23.318-3.965A10.532,10.532,0,0,1,44,27.5,11.513,11.513,0,0,1,32.5,39ZM23,11A10.011,10.011,0,0,0,13,21c0,.326.019.647.049.966a1,1,0,0,1-.879,1.088A7,7,0,0,0,13,37H32.5A9.511,9.511,0,0,0,42,27.5,8.52,8.52,0,0,0,33.568,19a1,1,0,0,1-.954-.728A10.031,10.031,0,0,0,23,11Z"></path>
  </g>
</svg>
